HIERARCHY
ROOT root     
{
	OFFSET 0.0000 0.0000 0.0000
	CHANNELS 6 Xposition Yposition Zposition Zrotation Yrotation Xrotation
	JOINT pelvis   
	{
		OFFSET 0.0000 0.0000 0.0000
		CHANNELS 3 Zrotation Yrotation Xrotation
		JOINT thorax   
		{
			OFFSET 0.0000 23.0750 -5.0000
			CHANNELS 3 Zrotation Yrotation Xrotation
			JOINT rclavicle
			{
				OFFSET 0.0000 28.0009 0.0000
				CHANNELS 3 Zrotation Yrotation Xrotation
				JOINT rhumerus 
				{
					OFFSET -18.5725 5.5939 0.0000
					CHANNELS 3 Zrotation Yrotation Xrotation
					JOINT rradius  
					{
						OFFSET -24.8459 0.0000 0.0000
						CHANNELS 3 Zrotation Yrotation Xrotation
						JOINT rhand    
						{
							OFFSET -24.5477 0.0000 0.0000
							CHANNELS 3 Zrotation Yrotation Xrotation
							End Site
							{
								OFFSET -8.1826 0.0000 0.0000
							}
						}
					}
				}
			}
			JOINT lclavicle
			{
				OFFSET 0.0000 28.0009 0.0000
				CHANNELS 3 Zrotation Yrotation Xrotation
				JOINT lhumerus 
				{
					OFFSET 18.5725 5.5939 0.0000
					CHANNELS 3 Zrotation Yrotation Xrotation
					JOINT lradius  
					{
						OFFSET 24.8459 0.0000 0.0000
						CHANNELS 3 Zrotation Yrotation Xrotation
						JOINT lhand    
						{
							OFFSET 24.5477 0.0000 0.0000
							CHANNELS 3 Zrotation Yrotation Xrotation
							End Site
							{
								OFFSET 8.1826 0.0000 0.0000
							}
						}
					}
				}
			}
			JOINT head     
			{
				OFFSET 0.0000 35.2030 0.0000
				CHANNELS 3 Zrotation Yrotation Xrotation
				End Site
				{
					OFFSET 0.0000 11.7343 0.0000
				}
			}
		}
		JOINT rfemur   
		{
			OFFSET -8.2817 0.0000 0.0000
			CHANNELS 3 Zrotation Yrotation Xrotation
			JOINT rtibia   
			{
				OFFSET 0.0000 -43.3627 0.0000
				CHANNELS 3 Zrotation Yrotation Xrotation
				JOINT rfoot    
				{
					OFFSET 0.0000 -38.2947 0.0000
					CHANNELS 3 Zrotation Yrotation Xrotation
					JOINT rtoes    
					{
						OFFSET 0.0000 0.0000 16.6054
						CHANNELS 3 Zrotation Yrotation Xrotation
						End Site
						{
							OFFSET 0.0000 0.0000 5.5351
						}
					}
				}
			}
		}
		JOINT lfemur   
		{
			OFFSET 8.2817 0.0000 0.0000
			CHANNELS 3 Zrotation Yrotation Xrotation
			JOINT ltibia   
			{
				OFFSET 0.0000 -43.3627 0.0000
				CHANNELS 3 Zrotation Yrotation Xrotation
				JOINT lfoot    
				{
					OFFSET 0.0000 -38.2947 0.0000
					CHANNELS 3 Zrotation Yrotation Xrotation
					JOINT ltoes    
					{
						OFFSET 0.0000 0.0000 16.6054
						CHANNELS 3 Zrotation Yrotation Xrotation
						End Site
						{
							OFFSET 0.0000 0.0000 5.5351
						}
					}
				}
			}
		}
	}
}
MOTION
Frames: 13
Frame Time: .0333333
28.839 87.644 10.693 57.788 -86.5294 -41.1888 0 -0 0 4.76859 -8.73683 -9.50683 25.7482 -8.55087 3.25644e-05 49.2621 9.84322 4.09441 -0 66.8606 -0 -8.45171 7.5216 -0.556589 -26.1915 12.7539 -4.62669e-06 -37.5103 2.34758 -5.78743 -7.93248e-07 -62.6261 4.82561e-07 7.2472 -4.70287 -0.298005 -12.2213 4.43777 -3.48306 -3.83189 0.0556082 -11.5534 -0 -0 22.8375 1.27934e-06 -3.69599 7.28198 -0.469098 1.38197e-07 -62.8448 -1.47336 7.09973 -24.0048 -0 -0 55.1514 -4.35475e-05 18.0442 10.397 3.36469 2.80864e-06 -37.0785 
27.893 87.874 10.707 62.6491 -86.5617 -45.8699 0 -0 0 4.28237 -8.14396 -9.50529 25.753 -8.42768 1.30611e-05 49.0775 10.5421 6.21908 -0 67.5365 -0 -6.97649 7.87625 -0.480896 -26.1545 12.7896 -2.83644e-05 -37.6432 2.47757 -6.90385 0 -61.2601 0 7.38241 -4.4275 -0.285807 -11.8025 4.25054 -3.67 -4.04953 0.0421907 -10.9607 -0 -0 22.2217 -1.3693e-06 -3.26105 8.55378 -0.485608 3.79447e-06 -64.0431 -2.06077 6.97772 -25.2311 -0 -0 54.1625 -6.08381e-05 17.7395 9.58157 3.0481 -2.11588e-05 -36.6425 
26.933 88.089 10.724 67.5897 -86.5735 -50.6314 0 -0 0 3.79447 -7.54218 -9.51555 25.7417 -8.31824 3.85271e-05 48.8704 11.2526 8.30961 -0 68.249 -0 -5.4995 8.15953 -0.392607 -26.0993 12.82 8.93086e-05 -37.7775 2.64508 -8.07336 0 -60.0245 0 7.53728 -4.13856 -0.272703 -11.3675 4.0451 -3.85334 -4.26056 0.0720048 -10.3735 -0 -0 21.637 5.04609e-07 -2.88481 9.80214 -0.491495 -2.51231e-06 -65.199 -2.6106 6.81773 -26.3813 -0 -0 52.9468 -8.41564e-05 17.4316 8.86052 2.7689 4.1104e-06 -36.1784 
25.96 88.288 10.744 72.5395 -86.583 -55.4038 0 -0 0 3.31039 -6.94124 -9.53779 25.7164 -8.22144 4.87245e-05 48.6402 11.9763 10.3669 -0 69.0025 -0 -4.06703 8.35707 -0.297295 -26.029 12.849 0.000108629 -37.9095 2.85839 -9.27713 0 -58.9428 0 7.72257 -3.86581 -0.261006 -10.9144 3.82887 -4.0349 -4.46259 0.140598 -9.79276 -0 -0 21.0807 -5.51734e-07 -2.56676 11.0103 -0.490502 3.08423e-06 -66.3219 -3.11351 6.61279 -27.4504 -0 -0 51.5176 6.28027e-06 17.1106 8.23614 2.52509 -1.52602e-05 -35.7 
24.974 88.469 10.767 77.3979 -86.5597 -60.0836 0 -0 0 2.83346 -6.35268 -9.57257 25.6779 -8.13506 9.62294e-06 48.3869 12.7117 12.3893 -7.07012e-07 69.792 -1.01362e-06 -2.71984 8.46164 -0.201195 -25.9469 12.8812 3.85288e-05 -38.038 3.12035 -10.494 0 -58.0228 0 7.94598 -3.63565 -0.252599 -10.4397 3.6084 -4.21726 -4.65303 0.239806 -9.22053 -0 -0 20.5541 -1.01677e-05 -2.30255 12.1673 -0.485495 -1.00164e-06 -67.4243 -3.56154 6.35672 -28.4377 -0 -0 49.8905 2.88398e-05 16.7672 7.70541 2.31328 -2.09657e-05 -35.2318 
23.976 88.63 10.792 81.9649 -86.5476 -64.4748 0 -0 0 2.3647 -5.7873 -9.62065 25.628 -8.05266 3.28135e-05 48.1137 13.4496 14.3659 -7.43734e-07 70.6251 -1.04995e-06 -1.48336 8.47381 -0.109905 -25.8539 12.9203 8.05332e-06 -38.1574 3.43083 -11.7019 0 -57.2695 0 8.21216 -3.46718 -0.248997 -9.93849 3.38864 -4.40269 -4.83097 0.357895 -8.66056 -0 -0 20.0562 -6.22004e-06 -2.0837 13.2672 -0.478402 8.39544e-06 -68.5209 -3.9499 6.04497 -29.3504 -0 -0 48.0825 4.76904e-05 16.3915 7.25998 2.12885 1.71366e-05 -34.8088 
22.968 88.77 10.819 86.1117 -86.5066 -68.4391 0 -0 0 1.90585 -5.25398 -9.68387 25.5753 -7.98251 -5.02429e-06 47.814 14.1997 16.3019 -1.0917e-06 71.4976 -7.85869e-07 -0.388501 8.40156 -0.0285001 -25.7548 12.9733 5.5901e-05 -38.2673 3.77573 -12.8774 0 -56.6772 0 8.52098 -3.37264 -0.251301 -9.40612 3.17297 -4.59482 -4.99231 0.485805 -8.11915 -0 -0 19.5881 -6.25541e-06 -1.90291 14.3128 -0.470591 1.32663e-06 -69.6247 -4.27431 5.67836 -30.1951 -0 -0 46.113 2.86322e-05 15.9766 6.8836 1.96519 -1.28089e-05 -34.4791 
21.953 88.887 10.847 89.7406 -86.456 -71.8793 0 -0 0 1.45259 -4.75751 -9.76243 25.5162 -7.90965 2.07319e-06 47.5017 14.9307 18.1617 -1.18105e-06 72.4233 -1.61301e-06 0.572209 8.25738 0.0413007 -25.6488 13.0415 -6.64575e-07 -38.3625 4.14996 -14.0022 0 -56.2416 0 8.86828 -3.3523 -0.260004 -8.83735 2.96217 -4.79446 -5.13833 0.61129 -7.60173 -0 -0 19.1581 1.488e-06 -1.74711 15.3088 -0.461404 4.24493e-06 -70.7447 -4.53693 5.26127 -30.9785 -0 -0 43.998 -2.55794e-05 15.5185 6.55592 1.81593 6.09306e-06 -34.2898 
20.932 88.981 10.876 92.7907 -86.4027 -74.7327 0 -0 0 1.00211 -4.29707 -9.85592 25.4551 -7.83214 6.61003e-05 47.1837 15.6304 19.9251 -0 73.4018 -0 1.40263 8.05882 0.0988021 -25.5366 13.1249 -2.19518e-05 -38.4429 4.53925 -15.0577 0 -55.9478 0 9.24666 -3.39954 -0.275002 -8.22888 2.75573 -5.00347 -5.26778 0.728102 -7.11345 -0 -0 18.7748 -7.90981e-08 -1.60605 16.2649 -0.450006 4.52637e-08 -71.8869 -4.7408 4.80456 -31.7062 -0 -0 41.7437 1.75218e-05 15.0172 6.25472 1.67412 6.10315e-06 -34.2818 
19.905 89.048 10.903 95.2839 -86.3523 -77.0205 0 -0 0 0.554697 -3.86657 -9.96588 25.3877 -7.74739 -1.70683e-05 46.8785 16.2825 21.5617 -0 74.4371 -0 2.12853 7.82725 0.145595 -25.4196 13.2236 -6.76469e-05 -38.5058 4.93063 -16.0316 5.0216e-07 -55.7811 -9.48809e-07 9.64696 -3.49921 -0.295398 -7.58067 2.55208 -5.2218 -5.37764 0.835799 -6.66231 -0 -0 18.4523 4.38533e-06 -1.47316 17.1902 -0.435511 1.74466e-06 -73.0481 -4.88794 4.32165 -32.3816 -0 -0 39.3565 -1.28324e-05 14.4713 5.96464 1.53635 1.49383e-05 -34.4624 
18.869 89.087 10.928 97.3813 -86.314 -78.9161 0 -0 0 0.103303 -3.45252 -10.0748 25.3302 -7.67637 6.36369e-05 46.5578 16.9126 23.0944 -0 75.5185 -0 2.70881 7.58409 0.179602 -25.295 13.3421 -4.74554e-05 -38.552 5.29935 -16.9119 0 -55.7193 0 10.0595 -3.63013 -0.319609 -6.89218 2.34985 -5.45229 -5.46903 0.934138 -6.23517 -0 -0 18.1993 4.93614e-06 -1.33617 18.0948 -0.415095 2.52101e-08 -74.2339 -4.9882 3.84633 -32.9853 -0 -0 36.8306 -1.95993e-05 13.8741 5.68558 1.40184 1.25471e-05 -35.0587 
17.823 89.094 10.949 99.2399 -86.2888 -80.5776 0 -0 0 -0.342492 -3.03933 -10.186 25.2569 -7.59113 6.08838e-05 46.2801 17.4602 24.452 -0 76.6419 -0 3.22972 7.35113 0.207502 -25.1649 13.4651 -0.00010797 -38.5856 5.6574 -17.6975 5.0163e-07 -55.7546 -9.4832e-07 10.4738 -3.77031 -0.345702 -6.17247 2.14935 -5.68995 -5.53476 1.03322 -5.83618 -0 -0 18.0344 -4.81779e-06 -1.19448 18.9804 -0.388597 3.10222e-06 -75.4298 -5.04049 3.39641 -33.5163 -0 -0 34.1737 5.27276e-06 13.2325 5.42 1.27244 9.57687e-06 -35.8845 
16.762 89.066 10.965 101.129 -86.2753 -82.291 0 -0 0 -0.775597 -2.60805 -10.2841 25.1711 -7.50346 3.28032e-05 46.0384 17.9378 25.6383 -0 77.7936 -0 3.68831 7.14929 0.2305 -25.026 13.5904 5.43058e-05 -38.6114 5.99954 -18.3861 0 -55.8754 0 10.8815 -3.89791 -0.371411 -5.43067 1.95316 -5.9328 -5.56901 1.14368 -5.44828 -0 -0 17.9645 1.8929e-06 -1.0454 19.8462 -0.354998 5.06105e-06 -76.6338 -5.04954 3.00823 -33.9553 -0 -0 31.3964 1.35657e-05 12.541 5.19468 1.1538 6.3007e-06 -37.0133 
